# xmcd CD database file
#
# Track frame offsets:
#	150
#	13979
#	24603
#	35431
#	52058
#	67000
#	80545
#	92807
#	107289
#	120354
#	133204
#	148279
#	161385
#	172628
#	182657
#	197674
#	212299
#	222637
#	237752
#	253948
#	272677
#	287830
#	309147
#	324764
#	343389
#
# Disc length: 4782 seconds
#
# Revision: 0
# Processed by: cddbd v1.5.2PL0 Copyright (c) Steve Scherf et al.
# Submitted via: CDex 1.51
#
DISCID=6c12ac19
DTITLE=George Jones - Ultimate 2 (1976-2004)
DYEAR=1900
DGENRE=Country
TTITLE0=1976-Golden Ring
TTITLE1=1976-Her Name is
TTITLE2=1976-Near you (With Tammy Wynette)
TTITLE3=1979-Night Life (With Waylon Jennings)
TTITLE4=1980-He Stopped Loving Her Today
TTITLE5=1980-I'm Not Ready Yet
TTITLE6=1980-Two Story House (With Tammy Wynette)
TTITLE7=1981-If Drinkin' Don't Kill Me (Her Memory Will)
TTITLE8=1981-Same Old Me
TTITLE9=1981-Still Doin' Time
TTITLE10=1983-I Always Get Lucky With you
TTITLE11=1983-Tennessee Whiskey
TTITLE12=1984-She's my Rock
TTITLE13=1984-We Didn't See A Thing (With Ray Charles and Chet Atkins)
TTITLE14=1986-Wine Colored Roses
TTITLE15=1987-The Right Left Hand
TTITLE16=1988-I'm A One Woman Man
TTITLE17=1988-The King is Gone (so Are you)
TTITLE18=1991-You Couldn't Get the Picture
TTITLE19=1995-One (With Tammy Wynette)
TTITLE20=1996-I Must Have Done Something Bad
TTITLE21=1998-Wild Irish Rose
TTITLE22=1999-Choices
TTITLE23=2000-Cold Hard Truth
TTITLE24=2004-Amazing Grace
EXTD=
EXTT0=
EXTT1=
EXTT2=
EXTT3=
EXTT4=
EXTT5=
EXTT6=
EXTT7=
EXTT8=
EXTT9=
EXTT10=
EXTT11=
EXTT12=
EXTT13=
EXTT14=
EXTT15=
EXTT16=
EXTT17=
EXTT18=
EXTT19=
EXTT20=
EXTT21=
EXTT22=
EXTT23=
EXTT24=
PLAYORDER=
